<?xml version="1.0" standalone="no"?>
<!DOCTYPE svg PUBLIC "-//W3C//DTD SVG 20010904//EN"
 "http://www.w3.org/TR/2001/REC-SVG-20010904/DTD/svg10.dtd">
<svg version="1.0" xmlns="http://www.w3.org/2000/svg"
 width="10.000000pt" height="10.000000pt" viewBox="0 0 10.000000 10.000000"
 preserveAspectRatio="xMidYMid meet">
<metadata>
Created by potrace 1.16, written by Peter Selinger 2001-2019
</metadata>
<g transform="translate(0.000000,10.000000) scale(0.001953,-0.001953)"
fill="#000000" stroke="none">
<path d="M2285 3654 c-129 -18 -329 -73 -475 -130 -365 -145 -787 -435 -1087
-747 -115 -118 -111 -129 142 -365 266 -248 600 -467 905 -595 631 -263 1265
-210 1900 161 242 141 442 294 648 497 202 198 200 182 24 355 -465 457 -1024
759 -1524 825 -136 18 -396 18 -533 -1z m490 -160 c465 -56 968 -321 1424
-750 l84 -79 -99 -94 c-271 -259 -640 -503 -924 -609 -520 -195 -899 -194
-1421 6 -263 100 -647 356 -903 602 l-99 95 94 89 c414 392 935 673 1354 731
61 8 121 16 135 19 63 9 236 5 355 -10z"/>
<path d="M2419 3027 c-69 -29 -105 -54 -154 -108 -89 -99 -120 -257 -75 -382
52 -143 155 -231 304 -258 171 -32 344 59 419 220 92 195 6 427 -192 520 -46
21 -73 26 -151 29 -81 2 -103 -1 -151 -21z m211 -147 c19 -5 52 -24 73 -41
107 -88 113 -245 12 -338 -56 -51 -84 -63 -156 -63 -70 0 -116 21 -168 77 -86
93 -74 241 26 324 58 48 135 63 213 41z"/>
</g>
</svg>
